<svg width="200" height="200" viewBox="0 0 200 200" fill="none" xmlns="http://www.w3.org/2000/svg">
<rect width="200" height="200" fill="white"/>
<path d="M60.7525 68.854V68.5919L152.402 53.3028V49L60.7525 64.2891V54.9409L47.8064 62.8912L38.6808 52.8878L29.5333 62.8912L16.609 54.9409V71.6497L2.26562 74.0522V78.355L58.2201 69.0287L60.7525 68.854Z" fill="#6627F5"/>
<path d="M196.957 126.336L69.2422 147.675V152L197.001 130.661L196.957 126.336Z" fill="#6627F5"/>
<path d="M113.668 93.377L2.78516 119.259V131.381L113.668 105.521V93.377Z" fill="#6627F5"/>
<path d="M24.4866 102.244L38.7863 109.823L53.1078 95.4078L67.5822 102.747L75.5944 91.4108L60.8144 83.5041V75.248L45.3358 77.8909V87.3919L38.7863 94.4249L32.2586 90.9521V80.1187L16.78 82.7615V92.7431L2 107.945L10.7981 115.939L24.4866 102.244Z" fill="#6627F5"/>
<path d="M69.5899 141.843V118.734L6.34375 133.434V145.556L53.5655 134.395V144.595L69.5899 141.843Z" fill="#6627F5"/>
<path d="M147.464 78.8317L131.745 81.5182V94.4266L123.188 96.5889V109.126L172.658 96.567V104.889L188.682 100.586V86.8257L196.935 84.4668V68.588L188.682 70.9469V53.8887L172.658 56.6407V84.03L147.464 90.4296V78.8317Z" fill="#6627F5"/>
<path d="M124.344 77.2579L152.288 72.4746V86.89L167.985 82.8712V57.4258L124.344 64.8737V77.2579Z" fill="#6627F5"/>
<path d="M129.016 110.152V130.377L189.38 120.09V104.43L144.975 115.525V106.264L129.016 110.152Z" fill="#6627F5"/>
</svg>
