<svg width="196" height="103" viewBox="0 0 196 103" fill="none" xmlns="http://www.w3.org/2000/svg">
<path d="M59.4869 19.854V19.5919L151.136 4.30278V0L59.4869 15.2891V5.9409L46.5407 13.8912L37.4151 3.88779L28.2677 13.8912L15.3434 5.9409V22.6497L1 25.0522V29.355L56.9544 20.0287L59.4869 19.854Z" fill="#6627F5"/>
<path d="M195.692 77.3359L67.9766 98.6751V103L195.735 81.6606L195.692 77.3359Z" fill="#6627F5"/>
<path d="M112.402 44.377L1.51953 70.2592V82.3812L112.402 56.5208V44.377Z" fill="#6627F5"/>
<path d="M23.2209 53.2442L37.5206 60.8232L51.8422 46.4078L66.3166 53.7465L74.3288 42.4108L59.5487 34.5041V26.248L44.0701 28.8909V38.3919L37.5206 45.4249L30.993 41.9521V31.1187L15.5144 33.7615V43.7431L0.734375 58.9448L9.53252 66.9388L23.2209 53.2442Z" fill="#6627F5"/>
<path d="M68.3243 92.8427V69.7344L5.07812 84.4337V96.5558L52.2999 85.3948V95.5948L68.3243 92.8427Z" fill="#6627F5"/>
<path d="M146.199 29.8317L130.48 32.5182V45.4266L121.922 47.5889V60.1259L171.392 47.567V55.8887L187.417 51.5859V37.8257L195.669 35.4668V19.588L187.417 21.9469V4.88867L171.392 7.64071V35.03L146.199 41.4296V29.8317Z" fill="#6627F5"/>
<path d="M123.078 28.2579L151.023 23.4746V37.89L166.72 33.8712V8.42578L123.078 15.8737V28.2579Z" fill="#6627F5"/>
<path d="M127.75 61.1522V81.3774L188.114 71.0901V55.4297L143.709 66.5252V57.2644L127.75 61.1522Z" fill="#6627F5"/>
</svg>
