<svg width="320" height="264" viewBox="0 0 320 264" fill="none" xmlns="http://www.w3.org/2000/svg">
<rect width="320" height="264" fill="white"/>
<path d="M189.246 87.069L186.441 80.7119L187.852 53.7586L168.401 65.4717L155.803 49L142.939 65.4717L123.754 53.7586L126.541 80.7119L123.754 87.069L157.197 90.2414L189.246 87.069Z" fill="#6627F5"/>
<path d="M199 95V91.8276L190.639 90.2414L189.943 88.6552L157.197 91.8276L123.057 88.6552L122.361 90.2414L114 91.8276V95H157.197H199Z" fill="#6627F5"/>
<path d="M21.1583 116.002C18.8923 114.726 18.1003 112.108 18.1003 109.93V108.016H16.3843V109.93C16.3843 111.558 16.0103 113.868 14.5143 115.408C13.0403 113.824 12.6883 111.448 12.6883 109.93V108.016H10.9503V109.93C10.9503 111.866 10.1583 114.66 7.91434 116.002L8.90434 117.3C10.3783 116.42 11.2803 114.902 11.7863 113.296C12.2263 114.946 13.0403 116.552 14.5363 117.52C16.0103 116.574 16.8243 115.034 17.2423 113.406C17.7703 115.012 18.6723 116.464 20.1463 117.3L21.1583 116.002ZM13.1723 120.798H22.8083V124.89H13.1723V120.798ZM11.4123 126.342H24.5903V119.368H11.4123V126.342ZM22.7863 106.916V111.118H19.7723V112.592H22.7863V118.422H24.5903V106.916H22.7863ZM31.0566 109.006H29.2746V121.634H30.5286C32.9046 121.634 35.1046 121.502 37.6786 120.974L37.4366 119.456C35.1486 119.918 33.1686 120.05 31.0566 120.072V109.006ZM39.1526 113.516H34.7526V115.012H39.1526V125.638H40.8686V107.378H39.1526V113.516ZM43.3546 106.872V126.628H45.0706V106.872H43.3546ZM64.7369 106.894H62.9329V117.014H64.7369V106.894ZM50.7449 111.998C50.7449 110.282 52.1749 109.072 54.0889 109.072C56.0249 109.072 57.4329 110.282 57.4329 111.998C57.4329 113.692 56.0249 114.902 54.0889 114.902C52.1749 114.902 50.7449 113.692 50.7449 111.998ZM59.1929 111.998C59.1929 109.38 57.0369 107.598 54.0889 107.598C51.1409 107.598 49.0069 109.38 49.0069 111.998C49.0069 114.594 51.1409 116.354 54.0889 116.354C57.0369 116.354 59.1929 114.594 59.1929 111.998ZM53.7809 124.934V122.756H64.7369V117.982H51.9549V119.412H62.9549V121.414H51.9989V126.364H65.3969V124.934H53.7809ZM88.842 106.894V126.672H90.646V106.894H88.842ZM80.24 108.412C77.314 108.412 75.224 111.096 75.224 115.298C75.224 119.5 77.314 122.184 80.24 122.184C83.166 122.184 85.256 119.5 85.256 115.298C85.256 111.096 83.166 108.412 80.24 108.412ZM80.24 110.04C82.154 110.04 83.518 112.108 83.518 115.298C83.518 118.51 82.154 120.578 80.24 120.578C78.304 120.578 76.94 118.51 76.94 115.298C76.94 112.108 78.304 110.04 80.24 110.04ZM95.8803 108.83V121.656H104.944V108.83H95.8803ZM103.184 110.282V120.226H97.6403V110.282H103.184ZM109.08 106.894V126.672H110.884V106.894H109.08ZM122.015 110.414H126.657V108.918H115.635V110.414H120.211V112.922C120.211 116.332 117.813 120.05 114.975 121.392L116.031 122.844C118.275 121.7 120.211 119.214 121.113 116.332C122.059 119.038 123.995 121.304 126.283 122.36L127.295 120.908C124.391 119.676 122.015 116.266 122.015 112.922V110.414ZM129.319 106.916V126.628H131.123V106.916H129.319ZM149.029 110.348H137.501V114.572H151.163V113.274H139.283V111.58H150.811V107.466H137.457V108.742H149.029V110.348ZM139.173 123.24H150.877V119.038H137.347V120.336H149.095V121.986H137.391V126.364H151.493V125.066H139.173V123.24ZM135.213 116.068V117.432H153.099V116.068H135.213ZM176.94 112.944H165.214V109.138H176.808V107.686H163.41V114.396H176.94V112.944ZM170.076 125.198C166.974 125.198 165.148 124.428 165.148 123.042C165.148 121.656 166.974 120.886 170.076 120.886C173.178 120.886 175.004 121.656 175.004 123.042C175.004 124.428 173.156 125.198 170.076 125.198ZM170.076 119.478C165.874 119.478 163.322 120.754 163.322 123.042C163.322 125.33 165.874 126.606 170.076 126.606C174.278 126.606 176.83 125.33 176.83 123.042C176.83 120.754 174.278 119.478 170.076 119.478ZM161.166 116.288V117.784H179.03V116.288H161.166ZM183.384 122.206H195.308V126.452H197.112V120.732H183.384V122.206ZM191.26 117.74V115.672H197.42V114.264H185.474V112.196H197.002V107.4H183.648V108.808H195.22V110.854H183.692V115.672H189.434V117.74H181.382V119.214H199.29V117.74H191.26ZM207.429 120.732C205.647 120.732 204.349 119.456 204.349 117.696C204.349 115.914 205.647 114.638 207.429 114.638C209.233 114.638 210.531 115.914 210.531 117.696C210.531 119.456 209.233 120.732 207.429 120.732ZM207.429 113.142C204.657 113.142 202.655 115.034 202.655 117.696C202.655 120.38 204.657 122.228 207.429 122.228C210.245 122.228 212.247 120.38 212.247 117.696C212.247 115.034 210.245 113.142 207.429 113.142ZM208.309 107.136H206.505V110.062H201.533V111.514H213.171V110.062H208.309V107.136ZM220.079 115.012H216.845V106.916H215.041V126.628H216.845V116.53H220.079V115.012ZM228.921 110.414H233.563V108.918H222.541V110.414H227.117V112.922C227.117 116.332 224.719 120.05 221.881 121.392L222.937 122.844C225.181 121.7 227.117 119.214 228.019 116.332C228.965 119.038 230.901 121.304 233.189 122.36L234.201 120.908C231.297 119.676 228.921 116.266 228.921 112.922V110.414ZM236.225 106.916V126.628H238.029V106.916H236.225ZM249.968 112.57C249.968 110.766 251.398 109.49 253.312 109.49C255.204 109.49 256.634 110.766 256.634 112.57C256.634 114.374 255.204 115.65 253.312 115.65C251.398 115.65 249.968 114.374 249.968 112.57ZM258.394 112.57C258.394 109.886 256.238 108.016 253.312 108.016C250.364 108.016 248.208 109.886 248.208 112.57C248.208 115.254 250.364 117.124 253.312 117.124C256.238 117.124 258.394 115.254 258.394 112.57ZM251.662 118.862H249.902V126.122H250.848C252.19 126.122 254.038 126.012 255.908 125.396L255.622 123.966C254.258 124.406 252.806 124.582 251.662 124.626V118.862ZM260.154 125.33C258.944 125.33 258.108 124.714 258.108 123.812C258.108 122.91 258.944 122.316 260.154 122.316C261.342 122.316 262.2 122.91 262.2 123.812C262.2 124.714 261.342 125.33 260.154 125.33ZM260.154 121.04C258.02 121.04 256.502 122.118 256.502 123.812C256.502 125.528 258.02 126.606 260.154 126.606C262.288 126.606 263.806 125.528 263.806 123.812C263.806 122.118 262.288 121.04 260.154 121.04ZM261.034 117.212H259.274V118.994H255.182V120.336H265.104V118.994H261.034V117.212ZM263.146 111.316V106.894H261.342V116.728H263.146V112.812H266.072V111.316H263.146ZM276.982 108.126C272.89 108.126 269.81 110.304 269.81 113.582C269.81 116.882 272.89 119.038 276.982 119.038C281.074 119.038 284.154 116.882 284.154 113.582C284.154 110.304 281.074 108.126 276.982 108.126ZM276.982 109.6C280.106 109.6 282.438 111.206 282.438 113.582C282.438 115.98 280.106 117.564 276.982 117.564C273.88 117.564 271.526 115.98 271.526 113.582C271.526 111.206 273.88 109.6 276.982 109.6ZM268.05 122.514V124.01H285.98V122.514H268.05ZM296.451 116.398H290.995V110.062H296.451V116.398ZM302.743 111.844V114.594H298.211V111.844H302.743ZM298.211 116.068H302.743V121.304H304.569V106.916H302.743V110.37H298.211V108.632H289.213V117.828H298.211V116.068ZM293.679 124.714V120.028H291.875V126.188H305.031V124.714H293.679ZM45.2207 139.028V140.48H52.6347C52.2607 145.166 49.6207 148.95 44.3187 151.48L45.2867 152.954C51.8427 149.742 54.4607 144.726 54.4607 139.028H45.2207ZM58.4427 136.894V156.628H60.2467V136.894H58.4427ZM68.385 150.732H66.581V156.188H80.155V154.714H68.385V150.732ZM68.429 141.58H78.021V144.11H68.429V141.58ZM74.127 147.674V145.562H79.803V137.664H78.021V140.172H68.429V137.664H66.647V145.562H72.323V147.674H64.271V149.148H82.135V147.674H74.127ZM98.8752 136.894V156.672H100.679V136.894H98.8752ZM90.2732 138.412C87.3472 138.412 85.2572 141.096 85.2572 145.298C85.2572 149.5 87.3472 152.184 90.2732 152.184C93.1992 152.184 95.2892 149.5 95.2892 145.298C95.2892 141.096 93.1992 138.412 90.2732 138.412ZM90.2732 140.04C92.1872 140.04 93.5512 142.108 93.5512 145.298C93.5512 148.51 92.1872 150.578 90.2732 150.578C88.3372 150.578 86.9732 148.51 86.9732 145.298C86.9732 142.108 88.3372 140.04 90.2732 140.04ZM105.914 138.83V151.656H114.978V138.83H105.914ZM113.218 140.282V150.226H107.674V140.282H113.218ZM119.114 136.894V156.672H120.918V136.894H119.114ZM132.048 140.414H136.69V138.918H125.668V140.414H130.244V142.922C130.244 146.332 127.846 150.05 125.008 151.392L126.064 152.844C128.308 151.7 130.244 149.214 131.146 146.332C132.092 149.038 134.028 151.304 136.316 152.36L137.328 150.908C134.424 149.676 132.048 146.266 132.048 142.922V140.414ZM139.352 136.916V156.628H141.156V136.916H139.352ZM146.302 139.006V140.502H153.54C153.122 145.166 150.416 148.95 145.378 151.48L146.368 152.888C152.748 149.698 155.322 144.616 155.322 139.006H146.302ZM163.594 144.902H160.426V136.894H158.622V156.628H160.426V146.398H163.594V144.902ZM185.631 147.102H187.457V136.916H185.631V140.48H181.341V141.954H185.631V147.102ZM182.727 145.276C179.889 144.33 177.887 141.932 177.887 139.358V137.532H176.105V139.358C176.105 142.218 174.147 144.704 171.177 145.716L172.123 147.146C174.433 146.288 176.215 144.572 177.051 142.35C177.909 144.352 179.625 145.914 181.803 146.684L182.727 145.276ZM176.567 154.934V152.822H187.457V148.092H174.741V149.522H185.675V151.458H174.785V156.364H188.205V154.934H176.567ZM201.975 142.02V143.494H205.869V148.664H207.695V136.916H205.869V142.02H201.975ZM203.075 146.508C200.215 145.496 198.279 143.01 198.279 140.48V139.798H202.613V138.346H192.075V139.798H196.475V140.48C196.475 143.318 194.451 145.98 191.503 147.058L192.449 148.488C194.759 147.608 196.585 145.76 197.421 143.472C198.279 145.496 199.973 147.124 202.173 147.916L203.075 146.508ZM201.183 155.22C198.213 155.22 196.409 154.384 196.409 152.954C196.409 151.524 198.213 150.666 201.183 150.666C204.153 150.666 205.957 151.524 205.957 152.954C205.957 154.384 204.153 155.22 201.183 155.22ZM201.183 149.28C197.135 149.28 194.605 150.622 194.605 152.954C194.605 155.286 197.135 156.628 201.183 156.628C205.231 156.628 207.761 155.286 207.761 152.954C207.761 150.622 205.231 149.28 201.183 149.28ZM224.458 145.672C222.742 145.936 220.938 146.068 219.112 146.178V144.132H223.006V142.658H215.306V139.358H222.808V137.884H213.524V144.132H217.308V146.244C215.328 146.332 213.392 146.332 211.742 146.332L212.006 147.784C215.548 147.762 220.278 147.696 224.568 146.97L224.458 145.672ZM226.086 154.912H216.736V152.624H226.086V154.912ZM226.086 151.216H216.736V149.148H214.932V156.364H227.868V149.148H226.086V151.216ZM226.064 136.916V148.268H227.868V136.916H226.064ZM234.95 138.808H233.146V151.524H234.774C237.92 151.524 241.022 151.304 244.454 150.6L244.256 149.06C240.978 149.72 237.92 149.984 234.95 149.984V138.808ZM246.28 136.894V156.606H248.084V136.894H246.28ZM254.792 140.282H262.162V138.786H252.988V151.744H254.55C258.268 151.744 260.864 151.612 263.878 151.04L263.68 149.544C260.82 150.05 258.29 150.204 254.792 150.204V140.282ZM270.588 144.682H267.332V136.894H265.528V156.672H267.332V146.178H270.588V144.682ZM272.809 153.812C272.809 153.269 272.941 152.888 273.205 152.668C273.469 152.448 273.784 152.338 274.151 152.338C274.532 152.338 274.855 152.448 275.119 152.668C275.397 152.888 275.537 153.269 275.537 153.812C275.537 154.34 275.397 154.721 275.119 154.956C274.855 155.191 274.532 155.308 274.151 155.308C273.784 155.308 273.469 155.191 273.205 154.956C272.941 154.721 272.809 154.34 272.809 153.812Z" fill="#6627F5"/>
</svg>
